<?xml version="1.0" standalone="no"?>
<!DOCTYPE svg PUBLIC "-//W3C//DTD SVG 20010904//EN"
 "http://www.w3.org/TR/2001/REC-SVG-20010904/DTD/svg10.dtd">
<svg version="1.0" xmlns="http://www.w3.org/2000/svg"
 width="700.000000pt" height="700.000000pt" viewBox="0 0 700.000000 700.000000"
 preserveAspectRatio="xMidYMid meet">
<metadata>
Created by potrace 1.14, written by Peter Selinger 2001-2017
</metadata>
<g transform="translate(0.000000,700.000000) scale(0.100000,-0.100000)"
fill="#000000" stroke="none">
<path d="M1314 6344 l1 -656 185 0 c102 0 200 1 218 1 l32 1 0 655 0 655 -219
0 -218 0 1 -656z"/>
<path d="M4812 6345 l0 -655 21 -1 c25 -1 385 0 405 0 9 1 12 139 12 656 l0
655 -219 0 -219 0 0 -655z"/>
<path d="M4 6561 c-2 -2 -4 -1380 -4 -3062 0 -2437 3 -3058 13 -3061 10 -3
3164 -2 3175 1 2 1 -24 31 -58 68 -67 75 -150 194 -201 292 -18 34 -40 66 -48
70 -9 4 -562 7 -1228 6 -1075 0 -1213 2 -1214 15 -4 79 -1 3469 3 3476 5 7
5648 12 5678 5 3 0 5 -58 5 -128 l-1 -128 71 -38 c106 -58 223 -139 290 -201
33 -30 64 -54 69 -53 11 4 15 2713 4 2730 -4 7 -143 11 -437 11 l-431 1 -1
-45 c0 -25 0 -321 0 -657 l0 -613 -655 0 c-516 0 -654 3 -655 13 -1 6 -2 298
-3 649 0 350 -4 640 -8 644 -9 9 -2156 12 -2170 3 -7 -4 -10 -229 -10 -658 l0
-651 -657 2 -656 3 0 647 c0 355 -3 650 -8 654 -7 8 -855 12 -863 5z"/>
<path d="M4800 3923 c-997 -114 -1748 -967 -1734 -1969 3 -246 32 -418 105
-630 117 -339 334 -655 599 -870 19 -16 37 -32 40 -35 3 -3 53 -38 111 -78
231 -154 458 -249 739 -307 140 -29 486 -39 620 -19 125 18 157 25 273 56 588
158 1067 581 1301 1150 28 68 75 211 90 274 61 255 70 593 21 849 -19 98 -77
299 -104 361 -91 206 -178 353 -296 500 -422 526 -1086 796 -1765 718z m435
-436 c321 -57 571 -173 801 -374 184 -161 316 -350 428 -613 20 -48 62 -202
75 -275 32 -179 30 -377 -5 -540 -9 -38 -17 -77 -19 -86 -10 -47 -68 -204
-101 -274 -155 -330 -453 -618 -784 -760 -202 -86 -398 -128 -600 -126 -320 3
-608 96 -875 285 -105 74 -289 250 -340 326 -16 25 -33 47 -36 50 -11 9 -87
137 -119 199 -69 137 -132 342 -148 481 -9 81 -9 295 0 375 35 317 204 654
451 897 301 297 677 450 1092 443 83 -2 164 -5 180 -8z"/>
<path d="M4848 3062 l-36 -3 0 -655 0 -654 657 0 656 0 0 218 0 217 -415 2
c-228 2 -425 3 -437 3 l-23 0 0 435 c0 341 -3 435 -12 436 -59 2 -361 3 -390
1z"/>
</g>
</svg>
